<mxfile host="app.diagrams.net" agent="Mozilla/5.0 (Windows NT 10.0; Win64; x64) AppleWebKit/537.36 (KHTML, like Gecko) Chrome/128.0.0.0 Safari/537.36" version="24.7.8">
  <diagram name="Page-1" id="q9tCvkWZ9sIvvq8LTof3">
    <mxGraphModel dx="1674" dy="738" grid="1" gridSize="10" guides="1" tooltips="1" connect="1" arrows="1" fold="1" page="1" pageScale="1" pageWidth="850" pageHeight="1100" math="0" shadow="0">
      <root>
        <mxCell id="0" />
        <mxCell id="1" parent="0" />
        <mxCell id="sKJfPkKz6pfZ7z6e7AR5-1" value="int(a)" style="rounded=1;whiteSpace=wrap;html=1;" vertex="1" parent="1">
          <mxGeometry x="140" y="100" width="120" height="60" as="geometry" />
        </mxCell>
        <mxCell id="sKJfPkKz6pfZ7z6e7AR5-2" value="int(b)" style="rounded=1;whiteSpace=wrap;html=1;" vertex="1" parent="1">
          <mxGeometry x="260" y="100" width="120" height="60" as="geometry" />
        </mxCell>
        <mxCell id="sKJfPkKz6pfZ7z6e7AR5-6" value="" style="endArrow=none;html=1;rounded=0;exitX=0.5;exitY=1;exitDx=0;exitDy=0;" edge="1" parent="1" source="sKJfPkKz6pfZ7z6e7AR5-1">
          <mxGeometry width="50" height="50" relative="1" as="geometry">
            <mxPoint x="400" y="410" as="sourcePoint" />
            <mxPoint x="320" y="200" as="targetPoint" />
            <Array as="points">
              <mxPoint x="200" y="200" />
            </Array>
          </mxGeometry>
        </mxCell>
        <mxCell id="sKJfPkKz6pfZ7z6e7AR5-7" value="" style="endArrow=none;html=1;rounded=0;entryX=0.5;entryY=1;entryDx=0;entryDy=0;" edge="1" parent="1" target="sKJfPkKz6pfZ7z6e7AR5-2">
          <mxGeometry width="50" height="50" relative="1" as="geometry">
            <mxPoint x="320" y="200" as="sourcePoint" />
            <mxPoint x="350" y="180" as="targetPoint" />
          </mxGeometry>
        </mxCell>
        <mxCell id="sKJfPkKz6pfZ7z6e7AR5-8" value="" style="endArrow=classic;html=1;rounded=0;" edge="1" parent="1">
          <mxGeometry width="50" height="50" relative="1" as="geometry">
            <mxPoint x="260" y="200" as="sourcePoint" />
            <mxPoint x="260" y="250" as="targetPoint" />
          </mxGeometry>
        </mxCell>
        <mxCell id="sKJfPkKz6pfZ7z6e7AR5-9" value="&lt;b&gt;&lt;u&gt;if&lt;/u&gt;&lt;/b&gt;" style="whiteSpace=wrap;html=1;aspect=fixed;direction=west;rotation=45;align=center;" vertex="1" parent="1">
          <mxGeometry x="229.24" y="268.17" width="56.34" height="56.34" as="geometry" />
        </mxCell>
        <mxCell id="sKJfPkKz6pfZ7z6e7AR5-11" value="" style="shape=flexArrow;endArrow=classic;html=1;rounded=0;" edge="1" parent="1">
          <mxGeometry width="50" height="50" relative="1" as="geometry">
            <mxPoint x="300" y="330" as="sourcePoint" />
            <mxPoint x="360" y="370" as="targetPoint" />
          </mxGeometry>
        </mxCell>
        <mxCell id="sKJfPkKz6pfZ7z6e7AR5-13" value="" style="shape=flexArrow;endArrow=classic;html=1;rounded=0;endWidth=22;endSize=5.58;" edge="1" parent="1">
          <mxGeometry width="50" height="50" relative="1" as="geometry">
            <mxPoint x="220" y="330" as="sourcePoint" />
            <mxPoint x="170" y="380" as="targetPoint" />
            <Array as="points" />
          </mxGeometry>
        </mxCell>
        <mxCell id="sKJfPkKz6pfZ7z6e7AR5-18" style="edgeStyle=orthogonalEdgeStyle;rounded=0;orthogonalLoop=1;jettySize=auto;html=1;exitX=0.5;exitY=1;exitDx=0;exitDy=0;" edge="1" parent="1" source="sKJfPkKz6pfZ7z6e7AR5-14">
          <mxGeometry relative="1" as="geometry">
            <mxPoint x="125" y="500" as="targetPoint" />
          </mxGeometry>
        </mxCell>
        <mxCell id="sKJfPkKz6pfZ7z6e7AR5-14" value="a &amp;gt; b" style="rounded=1;whiteSpace=wrap;html=1;" vertex="1" parent="1">
          <mxGeometry x="50" y="400" width="150" height="50" as="geometry" />
        </mxCell>
        <mxCell id="sKJfPkKz6pfZ7z6e7AR5-17" style="edgeStyle=orthogonalEdgeStyle;rounded=0;orthogonalLoop=1;jettySize=auto;html=1;exitX=0.5;exitY=1;exitDx=0;exitDy=0;" edge="1" parent="1" source="sKJfPkKz6pfZ7z6e7AR5-15">
          <mxGeometry relative="1" as="geometry">
            <mxPoint x="385" y="500" as="targetPoint" />
          </mxGeometry>
        </mxCell>
        <mxCell id="sKJfPkKz6pfZ7z6e7AR5-15" value="a &amp;lt; b" style="rounded=1;whiteSpace=wrap;html=1;" vertex="1" parent="1">
          <mxGeometry x="300" y="400" width="170" height="50" as="geometry" />
        </mxCell>
        <mxCell id="sKJfPkKz6pfZ7z6e7AR5-19" value="print(a)" style="shape=document;whiteSpace=wrap;html=1;boundedLbl=1;" vertex="1" parent="1">
          <mxGeometry x="50" y="490" width="150" height="80" as="geometry" />
        </mxCell>
        <mxCell id="sKJfPkKz6pfZ7z6e7AR5-21" value="print" style="shape=document;whiteSpace=wrap;html=1;boundedLbl=1;" vertex="1" parent="1">
          <mxGeometry x="300" y="490" width="160" height="80" as="geometry" />
        </mxCell>
        <mxCell id="sKJfPkKz6pfZ7z6e7AR5-23" value="" style="endArrow=none;html=1;rounded=0;entryX=0.447;entryY=0.963;entryDx=0;entryDy=0;entryPerimeter=0;" edge="1" parent="1" target="sKJfPkKz6pfZ7z6e7AR5-19">
          <mxGeometry width="50" height="50" relative="1" as="geometry">
            <mxPoint x="117" y="610" as="sourcePoint" />
            <mxPoint x="130" y="580" as="targetPoint" />
          </mxGeometry>
        </mxCell>
        <mxCell id="sKJfPkKz6pfZ7z6e7AR5-24" value="" style="endArrow=none;html=1;rounded=0;" edge="1" parent="1">
          <mxGeometry width="50" height="50" relative="1" as="geometry">
            <mxPoint x="120" y="610" as="sourcePoint" />
            <mxPoint x="400" y="610" as="targetPoint" />
            <Array as="points">
              <mxPoint x="260" y="610" />
            </Array>
          </mxGeometry>
        </mxCell>
        <mxCell id="sKJfPkKz6pfZ7z6e7AR5-25" value="" style="endArrow=none;html=1;rounded=0;entryX=0.625;entryY=0.8;entryDx=0;entryDy=0;entryPerimeter=0;" edge="1" parent="1" target="sKJfPkKz6pfZ7z6e7AR5-21">
          <mxGeometry width="50" height="50" relative="1" as="geometry">
            <mxPoint x="400" y="610" as="sourcePoint" />
            <mxPoint x="450" y="560" as="targetPoint" />
          </mxGeometry>
        </mxCell>
        <mxCell id="sKJfPkKz6pfZ7z6e7AR5-27" style="edgeStyle=orthogonalEdgeStyle;rounded=0;orthogonalLoop=1;jettySize=auto;html=1;exitX=0.5;exitY=1;exitDx=0;exitDy=0;entryX=0;entryY=0;entryDx=0;entryDy=0;" edge="1" parent="1" source="sKJfPkKz6pfZ7z6e7AR5-26" target="sKJfPkKz6pfZ7z6e7AR5-2">
          <mxGeometry relative="1" as="geometry" />
        </mxCell>
        <mxCell id="sKJfPkKz6pfZ7z6e7AR5-26" value="starr" style="rounded=1;whiteSpace=wrap;html=1;" vertex="1" parent="1">
          <mxGeometry x="200" width="120" height="60" as="geometry" />
        </mxCell>
        <mxCell id="sKJfPkKz6pfZ7z6e7AR5-29" value="" style="endArrow=classic;html=1;rounded=0;" edge="1" parent="1">
          <mxGeometry width="50" height="50" relative="1" as="geometry">
            <mxPoint x="260" y="610" as="sourcePoint" />
            <mxPoint x="260" y="670" as="targetPoint" />
          </mxGeometry>
        </mxCell>
        <mxCell id="sKJfPkKz6pfZ7z6e7AR5-30" value="end" style="rounded=1;whiteSpace=wrap;html=1;" vertex="1" parent="1">
          <mxGeometry x="200" y="670" width="120" height="60" as="geometry" />
        </mxCell>
      </root>
    </mxGraphModel>
  </diagram>
</mxfile>
